<?xml version="1.0" encoding="utf-8"?>
<!-- Generator: Adobe Illustrator 22.0.0, SVG Export Plug-In . SVG Version: 6.00 Build 0)  -->
<svg version="1.1" id="Layer_1" xmlns="http://www.w3.org/2000/svg" xmlns:xlink="http://www.w3.org/1999/xlink" x="0px" y="0px"
	 viewBox="0 0 49.7 40" style="enable-background:new 0 0 49.7 40;" xml:space="preserve">
<style type="text/css">
	.st0{fill:#FFFFFF;}
	.st1{fill:#004B8D;}
</style>
<g>
	<g>
		<g>
			<polyline class="st0" points="21.9,7.9 21.9,1 27.4,1 27.4,7.4 			"/>
			<path class="st1" d="M21.9,8.9c-0.5,0-1-0.4-1-1V1c0-0.5,0.4-1,1-1h5.5c0.5,0,1,0.4,1,1v6.5c0,0.5-0.4,1-1,1s-1-0.4-1-1V1.9h-3.5
				v6C22.9,8.5,22.5,8.9,21.9,8.9z"/>
		</g>
		<g>
			<polyline class="st0" points="6.5,23.6 6.5,16.7 11.9,16.7 11.9,23.1 			"/>
			<path class="st1" d="M6.5,24.6c-0.5,0-1-0.4-1-1v-6.9c0-0.5,0.4-1,1-1h5.5c0.5,0,1,0.4,1,1v6.5c0,0.5-0.4,1-1,1s-1-0.4-1-1v-5.5
				H7.4v6C7.4,24.2,7,24.6,6.5,24.6z"/>
		</g>
		<g>
			<polyline class="st0" points="37,16.7 37,9.7 42.5,9.7 42.5,16.2 			"/>
			<path class="st1" d="M37,17.7c-0.5,0-1-0.4-1-1V9.7c0-0.5,0.4-1,1-1h5.5c0.5,0,1,0.4,1,1v6.5c0,0.5-0.4,1-1,1c-0.5,0-1-0.4-1-1
				v-5.5H38v6C38,17.2,37.6,17.7,37,17.7z"/>
		</g>
		<g>
			<rect x="1" y="23.8" class="st0" width="18.3" height="12.8"/>
			<path class="st1" d="M19.2,37.5H1c-0.5,0-1-0.4-1-1V23.8c0-0.5,0.4-1,1-1h18.3c0.5,0,1,0.4,1,1v12.8
				C20.2,37.1,19.8,37.5,19.2,37.5z M1.9,35.6h16.3V24.7H1.9V35.6z"/>
		</g>
		<g>
			<rect x="14.7" y="7.9" class="st0" width="19.2" height="28.6"/>
			<path class="st1" d="M34,37.5H14.7c-0.5,0-1-0.4-1-1V7.9c0-0.5,0.4-1,1-1H34c0.5,0,1,0.4,1,1v28.6C35,37.1,34.5,37.5,34,37.5z
				 M15.7,35.6H33V8.9H15.7V35.6z"/>
		</g>
		<g>
			<rect x="31.3" y="16.2" class="st0" width="17.4" height="20.3"/>
			<path class="st1" d="M48.7,37.5H31.3c-0.5,0-1-0.4-1-1V16.2c0-0.5,0.4-1,1-1h17.4c0.5,0,1,0.4,1,1v20.3
				C49.7,37.1,49.3,37.5,48.7,37.5z M32.3,35.6h15.5V17.2H32.3V35.6z"/>
		</g>
	</g>
	<circle class="st1" cx="2.8" cy="39" r="1"/>
	<circle class="st1" cx="14.8" cy="39" r="1"/>
	<circle class="st1" cx="17.8" cy="39" r="1"/>
	<circle class="st1" cx="30.8" cy="39" r="1"/>
	<circle class="st1" cx="34.8" cy="39" r="1"/>
	<circle class="st1" cx="45.8" cy="39" r="1"/>
</g>
</svg>
