<?xml version="1.0" encoding="utf-8"?>
<!-- Generator: Adobe Illustrator 22.0.0, SVG Export Plug-In . SVG Version: 6.00 Build 0)  -->
<svg version="1.1" id="Layer_1" xmlns="http://www.w3.org/2000/svg" xmlns:xlink="http://www.w3.org/1999/xlink" x="0px" y="0px"
	 viewBox="0 0 46.1 44.7" style="enable-background:new 0 0 46.1 44.7;" xml:space="preserve">
<style type="text/css">
	.st0{fill:#FFFFFF;}
	.st1{fill:#004B8D;}
</style>
<g>
	<g>
		<path class="st0" d="M14.2,13.2L30.8,1.8c0,0,3.5-2.8,6.8,2"/>
		<path class="st1" d="M14.2,14.2c-0.3,0-0.7-0.2-0.9-0.5c-0.3-0.5-0.2-1.1,0.3-1.4L30.2,1c0.3-0.2,1.8-1.3,3.8-1
			c1.7,0.2,3.2,1.3,4.5,3.2c0.3,0.5,0.2,1.1-0.3,1.4c-0.5,0.3-1.1,0.2-1.4-0.3c-1-1.4-2-2.2-3.1-2.4c-1.3-0.2-2.2,0.5-2.2,0.6
			c0,0,0,0-0.1,0L14.8,14.1C14.6,14.2,14.4,14.2,14.2,14.2z"/>
	</g>
	<g>
		<path class="st0" d="M22,34.2L43,19.6c0,0,4.2-1.8,0.6-7.1l-5.9-8.7L18.2,17.3"/>
		<path class="st1" d="M22,35.2c-0.3,0-0.6-0.2-0.8-0.4c-0.3-0.5-0.2-1.1,0.3-1.4l20.9-14.6c0.1,0,0.1-0.1,0.2-0.1
			c0,0,1-0.5,1.3-1.6c0.3-1-0.1-2.4-1.2-4l-5.3-7.8L18.8,18.2c-0.5,0.3-1.1,0.2-1.4-0.3c-0.3-0.5-0.2-1.1,0.3-1.4L37.1,3
			c0.2-0.2,0.5-0.2,0.8-0.2c0.3,0,0.5,0.2,0.7,0.4l5.9,8.7c1.5,2.1,2,4.1,1.5,5.7c-0.5,1.8-2,2.6-2.4,2.8L22.6,35
			C22.5,35.2,22.2,35.2,22,35.2z"/>
	</g>
	<g>
		<line class="st0" x1="39.6" y1="6.7" x2="20.1" y2="20.2"/>
		<path class="st1" d="M20.1,21.2c-0.3,0-0.7-0.2-0.9-0.4c-0.3-0.5-0.2-1.1,0.3-1.4L39,5.9c0.5-0.3,1.1-0.2,1.4,0.3
			c0.3,0.5,0.2,1.1-0.3,1.4L20.7,21C20.5,21.2,20.3,21.2,20.1,21.2z"/>
	</g>
	<g>
		<g>
			<path class="st0" d="M3.3,27.7h3.3l0-2.8c0-1.8,1.5-4,3.3-4c1.8,0,3.3,2.2,3.3,4v8.8h3.4l0.1-10.2c0-3.4-3.5-6.1-6.9-6.1
				c-3.4,0-6.6,2.9-6.6,6.3V27.7z"/>
			<path class="st1" d="M16.6,34.8h-3.4c-0.6,0-1-0.5-1-1v-8.8c0-1.3-1.1-3-2.3-3c-1.2,0-2.3,1.7-2.3,3l0,2.8c0,0.6-0.5,1-1,1H3.3
				c-0.6,0-1-0.5-1-1v-4c0-3.9,3.6-7.3,7.6-7.3c3.7,0,7.9,3.1,7.9,7.2l-0.2,10.2C17.7,34.3,17.2,34.8,16.6,34.8z M14.2,32.7h1.4
				l0.1-9.2c0-2.9-3.2-5.1-5.9-5.1c-2.9,0-5.6,2.5-5.6,5.3v2.9h1.2l0-1.7c0-2.3,1.9-5,4.4-5c2.5,0,4.4,2.7,4.4,5V32.7z"/>
		</g>
		<g>
			<rect x="1" y="26.3" class="st0" width="17.4" height="17.4"/>
			<path class="st1" d="M18.4,44.7H1c-0.6,0-1-0.5-1-1V26.3c0-0.6,0.5-1,1-1h17.4c0.6,0,1,0.5,1,1v17.4C19.5,44.2,19,44.7,18.4,44.7
				z M2.1,42.6h15.3V27.3H2.1V42.6z"/>
		</g>
	</g>
</g>
</svg>
