<?xml version="1.0" encoding="utf-8"?>
<!-- Generator: Adobe Illustrator 22.0.0, SVG Export Plug-In . SVG Version: 6.00 Build 0)  -->
<svg version="1.1" id="Layer_1" xmlns="http://www.w3.org/2000/svg" xmlns:xlink="http://www.w3.org/1999/xlink" x="0px" y="0px"
	 viewBox="0 0 59 30.2" style="enable-background:new 0 0 59 30.2;" xml:space="preserve">
<style type="text/css">
	.st0{fill:#FFFFFF;}
	.st1{fill:#004B8D;}
</style>
<g>
	<g>
		<polyline class="st0" points="10.6,1.1 41.6,1.1 43.3,9.5 54.1,9.5 57.9,24.1 		"/>
		<path class="st1" d="M57.9,25.2c-0.5,0-1-0.3-1.1-0.9l-3.6-13.8h-9.9c-0.5,0-1-0.4-1.1-0.9l-1.5-7.4h-30c-0.6,0-1.1-0.5-1.1-1.1
			S10,0,10.6,0h30.9c0.5,0,1,0.4,1.1,0.9l1.5,7.4h9.9c0.5,0,1,0.4,1.1,0.9L59,23.8c0.2,0.6-0.2,1.2-0.8,1.4
			C58.1,25.2,58,25.2,57.9,25.2z"/>
	</g>
	<g>
		<path class="st0" d="M54.5,26.2l-4.8,0c0,0-0.3-8.8-7.8-8.8c-7.5,0-8.3,9.1-8.3,9.1l-9.4,0c0,0,0-9.1-7.5-9.1s-8.4,8.9-8.4,8.9"/>
		<path class="st1" d="M33.5,27.6h-9.4c-0.6,0-1.1-0.5-1.1-1.1c0-0.3-0.1-8-6.4-8c-6.4,0-7.2,7.5-7.3,7.9c-0.1,0.6-0.6,1.1-1.2,1
			c-0.6-0.1-1.1-0.6-1-1.2c0.3-3.4,2.7-9.9,9.5-9.9c6.2,0,8.3,5.4,8.6,9.1h7.4c0.6-3.6,3.2-9.1,9.3-9.1c6.2,0,8.4,5.3,8.9,8.8h3.8
			c0.6,0,1.1,0.5,1.1,1.1c0,0.6-0.5,1.1-1.1,1.1h-4.8c-0.6,0-1.1-0.5-1.1-1.1c0-0.3-0.3-7.7-6.7-7.7c-2.7,0-4.7,1.3-6,3.9
			c-1,2.1-1.2,4.1-1.2,4.1C34.6,27.1,34.1,27.6,33.5,27.6z"/>
	</g>
	<g>
		<line class="st0" x1="27.5" y1="5.1" x2="6.8" y2="5.1"/>
		<path class="st1" d="M27.5,6.3H6.8c-0.6,0-1.1-0.5-1.1-1.1S6.2,4,6.8,4h20.7c0.6,0,1.1,0.5,1.1,1.1S28.1,6.3,27.5,6.3z"/>
	</g>
	<g>
		<line class="st0" x1="18.8" y1="10.4" x2="4" y2="10.4"/>
		<path class="st1" d="M18.8,11.6H4c-0.6,0-1.1-0.5-1.1-1.1c0-0.6,0.5-1.1,1.1-1.1h14.8c0.6,0,1.1,0.5,1.1,1.1
			C19.9,11.1,19.4,11.6,18.8,11.6z"/>
	</g>
	<g>
		<line class="st0" x1="10.6" y1="15.7" x2="1.1" y2="15.7"/>
		<path class="st1" d="M10.6,16.9H1.1c-0.6,0-1.1-0.5-1.1-1.1c0-0.6,0.5-1.1,1.1-1.1h9.5c0.6,0,1.1,0.5,1.1,1.1
			C11.8,16.4,11.3,16.9,10.6,16.9z"/>
	</g>
	<g>
		<circle class="st0" cx="16.1" cy="25" r="4"/>
		<path class="st1" d="M16.1,30.2c-2.8,0-5.1-2.3-5.1-5.1s2.3-5.1,5.1-5.1s5.1,2.3,5.1,5.1S19,30.2,16.1,30.2z M16.1,22.2
			c-1.6,0-2.8,1.3-2.8,2.8c0,1.6,1.3,2.8,2.8,2.8S19,26.6,19,25C19,23.5,17.7,22.2,16.1,22.2z"/>
	</g>
	<g>
		<circle class="st0" cx="41.6" cy="25" r="4"/>
		<path class="st1" d="M41.6,30.2c-2.8,0-5.1-2.3-5.1-5.1s2.3-5.1,5.1-5.1s5.1,2.3,5.1,5.1S44.4,30.2,41.6,30.2z M41.6,22.2
			c-1.6,0-2.8,1.3-2.8,2.8c0,1.6,1.3,2.8,2.8,2.8s2.8-1.3,2.8-2.8C44.4,23.5,43.1,22.2,41.6,22.2z"/>
	</g>
</g>
</svg>
