<?xml version="1.0" encoding="utf-8"?>
<!-- Generator: Adobe Illustrator 22.0.0, SVG Export Plug-In . SVG Version: 6.00 Build 0)  -->
<svg version="1.1" id="Layer_1" xmlns="http://www.w3.org/2000/svg" xmlns:xlink="http://www.w3.org/1999/xlink" x="0px" y="0px"
	 viewBox="0 0 29.3 45.2" style="enable-background:new 0 0 29.3 45.2;" xml:space="preserve">
<style type="text/css">
	.st0{fill:#FFFFFF;}
	.st1{fill:#004B8D;}
</style>
<g>
	<g>
		<polyline class="st0" points="24.7,8.9 28.3,8.9 28.3,44.2 1,44.2 1,8.9 4.7,8.9 		"/>
		<path class="st1" d="M28.3,45.2H1c-0.6,0-1-0.5-1-1V8.9c0-0.6,0.5-1,1-1h3.7c0.6,0,1,0.5,1,1s-0.5,1-1,1H2.1v33.2h25.1V9.9h-2.5
			c-0.6,0-1-0.5-1-1s0.5-1,1-1h3.6c0.6,0,1,0.5,1,1v35.3C29.3,44.8,28.8,45.2,28.3,45.2z"/>
	</g>
	<g>
		<g>
			<path class="st1" d="M15.7,10.8c-1.1,1.2-2.8,1.7-4.3,1.5c0.2,0.4,0.5,0.8,0.8,1.1c1.7,1.6,4.4,1.5,6-0.2c1.6-1.7,1.5-4.4-0.2-6
				c-0.3-0.3-0.7-0.6-1.1-0.8C17.2,7.9,16.8,9.6,15.7,10.8"/>
		</g>
		<g>
			<path class="st1" d="M18.6,6.6c1.2,1.1,1.7,2.8,1.5,4.3c0.4-0.2,0.8-0.5,1.1-0.8c1.6-1.7,1.5-4.4-0.2-6c-1.7-1.6-4.4-1.5-6,0.2
				c-0.3,0.3-0.6,0.7-0.8,1.1C15.7,5.1,17.3,5.5,18.6,6.6"/>
		</g>
		<g>
			<path class="st1" d="M14.4,3.7c1.1-1.2,2.8-1.7,4.3-1.5c-0.2-0.4-0.5-0.8-0.8-1.1c-1.7-1.6-4.4-1.5-6,0.2c-1.6,1.7-1.5,4.4,0.2,6
				c0.3,0.3,0.7,0.6,1.1,0.8C12.9,6.6,13.3,5,14.4,3.7"/>
		</g>
		<g>
			<path class="st1" d="M11.5,7.9C10.3,6.7,9.8,5.1,10,3.6C9.6,3.8,9.3,4.1,8.9,4.4c-1.6,1.7-1.5,4.4,0.2,6c1.7,1.6,4.4,1.5,6-0.2
				c0.3-0.3,0.6-0.7,0.8-1.1C14.4,9.4,12.7,9,11.5,7.9"/>
		</g>
	</g>
	<g>
		<line class="st0" x1="5.7" y1="20.9" x2="24" y2="20.9"/>
		<path class="st1" d="M24,21.9H5.7c-0.6,0-1-0.5-1-1c0-0.6,0.5-1,1-1H24c0.6,0,1,0.5,1,1C25.1,21.4,24.6,21.9,24,21.9z"/>
	</g>
	<g>
		<line class="st0" x1="5.7" y1="24.9" x2="17.2" y2="24.9"/>
		<path class="st1" d="M17.2,25.9H5.7c-0.6,0-1-0.5-1-1c0-0.6,0.5-1,1-1h11.4c0.6,0,1,0.5,1,1C18.2,25.5,17.7,25.9,17.2,25.9z"/>
	</g>
	<g>
		<line class="st0" x1="5.7" y1="29.4" x2="17.2" y2="29.4"/>
		<path class="st1" d="M17.2,30.5H5.7c-0.6,0-1-0.5-1-1c0-0.6,0.5-1,1-1h11.4c0.6,0,1,0.5,1,1C18.2,30,17.7,30.5,17.2,30.5z"/>
	</g>
	<g>
		<polyline class="st0" points="11.3,36.5 13.9,39.5 23,30.5 		"/>
		<path class="st1" d="M13.9,40.6C13.9,40.6,13.9,40.6,13.9,40.6c-0.3,0-0.6-0.1-0.8-0.4l-2.6-3c-0.4-0.4-0.3-1.1,0.1-1.5
			c0.4-0.4,1.1-0.3,1.5,0.1L14,38l8.3-8.3c0.4-0.4,1.1-0.4,1.5,0c0.4,0.4,0.4,1.1,0,1.5l-9.1,9.1C14.5,40.5,14.2,40.6,13.9,40.6z"/>
	</g>
</g>
</svg>
